HIERARCHY
ROOT Hips
{
  OFFSET 0 0 0
  CHANNELS 6 Xposition Yposition Zposition Zrotation Xrotation Yrotation
  JOINT Spine
  {
    OFFSET 0 10 0
    CHANNELS 3 Zrotation Xrotation Yrotation
    JOINT Neck
    {
      OFFSET 0 30 0
      CHANNELS 3 Zrotation Xrotation Yrotation
      JOINT Head
      {
        OFFSET 0 8 0
        CHANNELS 3 Zrotation Xrotation Yrotation
        End Site
        {
          OFFSET 0 10 0
        }
      }
    }
    JOINT LeftArm
    {
      OFFSET 15 30 0
      CHANNELS 3 Zrotation Xrotation Yrotation
      JOINT LeftForeArm
      {
        OFFSET 25 0 0
        CHANNELS 3 Zrotation Xrotation Yrotation
        JOINT LeftHand
        {
          OFFSET 25 0 0
          CHANNELS 3 Zrotation Xrotation Yrotation
          End Site
          {
            OFFSET 10 0 0
          }
        }
      }
    }
    JOINT RightArm
    {
      OFFSET -15 30 0
      CHANNELS 3 Zrotation Xrotation Yrotation
      JOINT RightForeArm
      {
        OFFSET -25 0 0
        CHANNELS 3 Zrotation Xrotation Yrotation
        JOINT RightHand
        {
          OFFSET -25 0 0
          CHANNELS 3 Zrotation Xrotation Yrotation
          End Site
          {
            OFFSET -10 0 0
          }
        }
      }
    }
  }
  JOINT LeftUpLeg
  {
    OFFSET 10 -10 0
    CHANNELS 3 Zrotation Xrotation Yrotation
    JOINT LeftLeg
    {
      OFFSET 0 -35 0
      CHANNELS 3 Zrotation Xrotation Yrotation
      JOINT LeftToe
      {
        OFFSET 0 -40 0
        CHANNELS 3 Zrotation Xrotation Yrotation
	JOINT LeftToeEnd
	{
          OFFSET 0 0 0
          CHANNELS 3 Zrotation Xrotation Yrotation
          End Site
          {
            OFFSET 0 0 15
          }
        }
      }
    }
  }
  JOINT RightUpLeg
  {
    OFFSET -10 -10 0
    CHANNELS 3 Zrotation Xrotation Yrotation
    JOINT RightLeg
    {
      OFFSET 0 -35 0
      CHANNELS 3 Zrotation Xrotation Yrotation
      JOINT RightToe
      {
        OFFSET 0 -40 0
        CHANNELS 3 Zrotation Xrotation Yrotation
        JOINT RightToeEnd
	{
          OFFSET 0 0 0
          CHANNELS 3 Zrotation Xrotation Yrotation
          End Site
          {
            OFFSET 0 0 15
          }
        }
      }
    }
  }
}
MOTION
Frames:	13
Frame Time:	0.0333333
-14.6851	91.7431	243.952	7.52269	-17.0845	-172.637	8.37587	-15.7679	3.82318	-10.0156	-21.0413	-2.34419	13.6218	37.8666	-12.3834	-93.6009	51.3061	2.39985	15.9102	-4.26527	-18.7912	-1.17318	-7.03891	1.11836	91.9351	51.5512	-3.96867	-17.6921	-4.95191	18.8717	2.21342	10.8618	0.947477	4.20639	-34.3907	-9.40605	-3.41745	41.3196	2.19009	-3.69959	-4.55026	17.7205	0.00E+00	0.00E+00	0.00E+00	8.7682	-31.8493	5.65584	1.77018	35.4593	-1.62951	3.75033	1.27116	-15.9145	0	0	0
-14.7629	91.6678	243.817	7.59446	-16.7101	-172.558	8.4706	-15.4077	3.90802	-10.0165	-20.9983	-2.35043	13.7191	37.99	-12.7115	-93.6383	51.1227	2.49459	15.9314	-4.2926	-18.8956	-1.12885	-7.01111	1.12754	92.1617	51.2435	-4.31706	-17.8219	-5.05425	19.1504	2.17785	10.4525	1.10587	4.30719	-33.7097	-9.29849	-3.28231	40.9834	2.08017	-3.40374	-5.11006	17.6312	0.00E+00	0.00E+00	0.00E+00	8.93807	-30.9871	5.88624	1.6765	34.8777	-1.66996	3.80973	0.682331	-16.4446	0	0	0
-14.7826	91.4725	243.936	7.63272	-17.1802	-172.16	8.21394	-15.6889	3.54381	-9.90757	-21.0838	-2.44836	13.5482	37.9165	-12.473	-93.0771	51.2174	2.0308	16.046	-4.34441	-19.0436	-1.14452	-7.1924	1.10045	91.9162	51.5192	-3.90956	-17.7128	-4.98887	18.954	2.20245	9.9263	1.06678	4.0518	-34.1369	-9.6337	-3.16734	40.5325	2.07097	-3.22959	-5.63225	17.5176	0.00E+00	0.00E+00	0.00E+00	8.99723	-31.3634	6.352	1.61238	34.5212	-1.80407	3.77672	-0.10553	-17.0439	0	0	0
-14.8297	91.2635	243.918	7.62436	-17.3711	-171.605	7.82261	-16.1401	2.92369	-9.52361	-20.441	-2.45824	12.9707	37.6366	-12.0627	-92.8676	51.7468	2.19705	16.0635	-4.34423	-19.0043	-1.21051	-7.14212	1.09084	91.9103	51.58	-3.6377	-17.4567	-4.9088	18.5793	2.23221	9.902	1.12905	3.81022	-34.2664	-9.73647	-3.00944	40.1916	2.04044	-3.05812	-6.22427	17.2202	0.00E+00	0.00E+00	0.00E+00	8.83903	-31.2551	6.29211	1.53522	34.1352	-1.89539	3.64124	-1.14197	-17.5144	0	0	0
-14.9205	90.9979	243.867	7.87177	-17.3038	-172.208	8.59667	-15.9212	3.54656	-9.99991	-20.6712	-2.39182	13.2313	37.8341	-12.2615	-93.1284	51.3277	2.08624	16.1642	-4.38303	-19.1595	-1.1747	-7.41572	1.04893	91.6141	51.2225	-3.47841	-17.7938	-5.10603	19.1448	2.17342	8.48735	1.37551	4.16034	-33.9088	-9.44828	-2.8234	40.136	1.99014	-2.77992	-7.52658	17.6164	0.00E+00	0.00E+00	0.00E+00	9.12762	-30.8448	6.12331	1.43655	33.48	-1.93311	3.28893	-1.85924	-16.9401	0	0	0
-15.054	90.723	243.709	7.58331	-16.8152	-171.9	8.25665	-15.4545	3.04173	-9.9373	-20.8746	-2.39174	13.1216	37.9715	-12.0871	-93.1138	51.3645	2.09142	16.15	-4.3818	-19.1993	-1.14542	-7.39318	1.03566	92.0687	51.9602	-3.81176	-17.7112	-4.93235	18.8661	2.17895	9.89293	1.05967	3.91392	-32.9972	-8.97663	-2.61699	39.7373	1.8534	-2.43408	-8.55764	17.0285	0.00E+00	0.00E+00	0.00E+00	8.83019	-29.8772	6.21596	1.31818	33.2896	-1.9995	3.15676	-3.40246	-17.4964	0	0	0
-15.1482	90.3335	243.729	7.67739	-17.2875	-172.977	8.94607	-15.6158	4.22769	-9.98015	-21.3238	-2.05839	12.8529	38.2796	-12.0272	-93.2858	50.9215	1.79006	16.0671	-4.34631	-19.115	-1.1692	-7.09098	1.05502	91.8657	51.6141	-3.69554	-17.7931	-4.9824	19.0119	2.16159	9.44848	1.15104	3.88646	-33.101	-9.09544	-2.38984	39.753	1.85901	-2.22424	-10.1392	18.2711	0.00E+00	0.00E+00	0.00E+00	9.06291	-30.1645	6.3668	1.23518	32.797	-2.07153	2.72042	-4.32804	-16.5866	0	0	0
-15.1865	89.9395	243.781	7.6871	-17.6273	-173.346	8.95214	-16.1467	4.65694	-9.67008	-20.6554	-1.81526	12.7443	38.0685	-11.8737	-93.5184	50.9272	2.1633	16.1	-4.36136	-19.1263	-1.15014	-7.17728	1.06368	92.3631	52.2469	-4.04708	-17.644	-4.97069	18.8291	2.21294	10.6771	1.06807	3.69473	-33.2047	-9.29059	-2.15	39.612	1.82745	-1.94458	-11.5002	18.8469	0.00E+00	0.00E+00	0.00E+00	9.22842	-30.4115	6.51881	1.13088	32.6184	-2.21666	2.49658	-5.53615	-16.8028	0	0	0
-15.2762	89.593	243.736	7.80172	-17.4422	-173.145	9.10032	-16.1785	4.42663	-9.74964	-20.2945	-1.80075	12.6802	37.9381	-11.6926	-93.7787	50.745	2.37473	16.0752	-4.34576	-19.0367	-1.14021	-7.07036	1.10696	92.7621	52.2353	-4.44356	-17.6758	-4.99282	18.8726	2.22929	11.3293	0.99784	3.69396	-32.7686	-9.22538	-1.90898	39.4389	1.76476	-1.65153	-12.7952	18.7547	0.00E+00	0.00E+00	0.00E+00	9.35539	-29.7124	6.54454	1.0021	32.0829	-2.22155	2.1567	-6.87902	-17.0475	0	0	0
-15.3596	89.2059	243.668	7.67202	-17.1271	-173.244	8.9679	-15.606	4.47364	-9.75827	-20.8989	-1.82636	12.8964	38.3449	-11.9527	-93.6256	50.6877	2.28556	16.1676	-4.41621	-19.3065	-1.13155	-7.19761	1.06501	92.3944	51.9595	-3.78051	-17.7648	-5.00213	18.9941	2.17018	10.7059	1.12298	3.31883	-32.0659	-9.59073	-1.65534	39.1973	1.67438	-1.29332	-14.1986	19.0987	0.00E+00	0.00E+00	0.00E+00	9.3263	-28.9823	6.76133	0.871397	31.7921	-2.26306	1.86706	-8.40594	-17.3462	0	0	0
-15.4567	88.8261	243.673	7.52861	-17.0765	-173.182	8.71558	-15.8684	4.42025	-9.32638	-20.1832	-1.75219	12.4382	37.9895	-11.8192	-93.8153	50.8056	2.55989	16.1025	-4.36034	-19.0857	-1.08641	-7.22468	1.09632	92.9189	52.4619	-4.34736	-17.5559	-4.92353	18.66	2.22781	11.9392	0.98172	2.99182	-31.6977	-9.62725	-1.43398	38.8688	1.60767	-0.985281	-15.4236	19.037	0.00E+00	0.00E+00	0.00E+00	9.1963	-28.6848	6.82432	0.753513	31.6818	-2.33826	1.6174	-9.85007	-17.7168	0	0	0
-15.5037	88.405	243.788	7.91866	-17.4093	-172.42	8.68147	-16.0254	4.24717	-9.25806	-20.4698	-2.00441	12.7576	37.9338	-12.2718	-93.4241	51.0589	2.18908	16.027	-4.33178	-19.0309	-1.14614	-7.07392	1.0889	92.6757	52.1014	-3.94651	-17.8858	-5.0745	19.1847	2.17647	10.2546	1.14036	3.23564	-32.236	-9.3427	-1.24038	38.8067	1.64673	-0.798618	-16.6209	18.346	0.00E+00	0.00E+00	0.00E+00	9.63314	-28.7275	7.31034	0.634893	31.1736	-2.4086	1.22031	-11.1403	-18.7525	0	0	0
-15.6264	88.0283	243.741	7.72101	-17.2221	-172.862	8.86804	-15.8507	4.24367	-9.444	-20.2209	-1.85212	12.4775	37.8859	-11.9081	-93.9551	50.5644	2.42253	16.0222	-4.3099	-18.9937	-1.25017	-7.12652	1.06334	92.4563	52.3762	-4.08132	-17.7767	-5.0668	19.0709	2.18474	10.5753	1.17576	2.93462	-31.5157	-9.43885	-1.03601	38.3769	1.49963	-0.268778	-17.9756	18.7133	0.00E+00	0.00E+00	0.00E+00	9.37463	-28.227	6.99168	0.526366	30.887	-2.41617	0.8808	-12.4405	-18.162	0	0	0
